<svg xmlns="http://www.w3.org/2000/svg" fill="none" viewBox="0 0 700 820"><defs><linearGradient id="b" x1="145" x2="563" y1="92" y2="721" gradientUnits="userSpaceOnUse"><stop stop-color="#2F3E4D"/><stop offset=".42" stop-color="#18212B"/><stop offset="1" stop-color="#0B1016"/></linearGradient><linearGradient id="c" x1="80" x2="648" y1="220" y2="522" gradientUnits="userSpaceOnUse"><stop stop-color="#334155"/><stop offset=".48" stop-color="#16202A"/><stop offset="1" stop-color="#0B1016"/></linearGradient><radialGradient id="d" cx="0" cy="0" r="1" gradientTransform="matrix(0 204 -188 0 354 208)" gradientUnits="userSpaceOnUse"><stop stop-color="#4B6075" stop-opacity=".45"/><stop offset="1" stop-color="#4B6075" stop-opacity="0"/></radialGradient><filter id="a" width="660" height="770" x="20" y="28" color-interpolation-filters="sRGB"><feDropShadow dx="0" dy="30" flood-color="#020617" flood-opacity=".28" stdDeviation="22"/></filter></defs><g filter="url(#a)"><path fill="url(#b)" d="M266 94c26-18.667 61.333-28 84-28s58 9.333 84 28l60 68-32 54-32-26v476c0 26.51-21.49 48-48 48h-64c-26.51 0-48-21.49-48-48V190l-32 26-32-54z"/><path fill="url(#c)" d="m250 156-79 96c-22.359 27.171-19.634 67.036 6.18 90.982L208 371l46-49 27-110zM450 156l79 96c22.359 27.171 19.634 67.036-6.18 90.982L492 371l-46-49-27-110z"/><path fill="#111821" d="M286 122c16.8-12.8 39.333-19.2 64-19.2s47.2 6.4 64 19.2l24 68c-22.181 24.806-51.982 39-88 39s-65.819-14.194-88-39z"/><path fill="#263545" d="M305 126.5c10.5-8.333 26-12.5 45-12.5s34.5 4.167 45 12.5l16.5 50C393.682 196.895 374.182 207 350 207s-43.682-10.105-61.5-30.5z"/><path fill="url(#d)" d="M254 191h192v455c0 21.539-17.461 39-39 39H293c-21.539 0-39-17.461-39-39z"/><path stroke="#5C7086" stroke-linecap="round" stroke-linejoin="round" stroke-width="12" d="M311 437h78c41.421 0 75.839 31.462 79.546 72.717L470 526H230l1.454-16.283C235.161 468.462 269.579 437 311 437" opacity=".72"/><rect width="120" height="10" x="290" y="548" fill="#55697D" opacity=".8" rx="5"/><rect width="32" height="230" x="334" y="245" fill="#415364" opacity=".28" rx="16"/></g></svg>