<svg xmlns="http://www.w3.org/2000/svg" viewBox="0 0 700 820" fill="none">
  <defs>
    <linearGradient id="hoodieBody" x1="145" y1="92" x2="563" y2="721" gradientUnits="userSpaceOnUse">
      <stop stop-color="#2F3E4D"/>
      <stop offset="0.42" stop-color="#18212B"/>
      <stop offset="1" stop-color="#0B1016"/>
    </linearGradient>
    <linearGradient id="hoodieSleeve" x1="80" y1="220" x2="648" y2="522" gradientUnits="userSpaceOnUse">
      <stop stop-color="#334155"/>
      <stop offset="0.48" stop-color="#16202A"/>
      <stop offset="1" stop-color="#0B1016"/>
    </linearGradient>
    <radialGradient id="hoodieHighlight" cx="0" cy="0" r="1" gradientUnits="userSpaceOnUse" gradientTransform="translate(354 208) rotate(90) scale(204 188)">
      <stop stop-color="#4B6075" stop-opacity="0.45"/>
      <stop offset="1" stop-color="#4B6075" stop-opacity="0"/>
    </radialGradient>
    <filter id="hoodieShadow" x="20" y="28" width="660" height="770" color-interpolation-filters="sRGB">
      <feDropShadow dx="0" dy="30" stdDeviation="22" flood-color="#020617" flood-opacity="0.28"/>
    </filter>
  </defs>
  <g filter="url(#hoodieShadow)">
    <path d="M266 94C292 75.3333 327.333 66 350 66C372.667 66 408 75.3333 434 94L494 162L462 216L430 190V666C430 692.51 408.51 714 382 714H318C291.49 714 270 692.51 270 666V190L238 216L206 162L266 94Z" fill="url(#hoodieBody)"/>
    <path d="M250 156L171 252C148.641 279.171 151.366 319.036 177.18 342.982L208 371L254 322L281 212L250 156Z" fill="url(#hoodieSleeve)"/>
    <path d="M450 156L529 252C551.359 279.171 548.634 319.036 522.82 342.982L492 371L446 322L419 212L450 156Z" fill="url(#hoodieSleeve)"/>
    <path d="M286 122C302.8 109.2 325.333 102.8 350 102.8C374.667 102.8 397.2 109.2 414 122L438 190C415.819 214.806 386.018 229 350 229C313.982 229 284.181 214.806 262 190L286 122Z" fill="#111821"/>
    <path d="M305 126.5C315.5 118.167 331 114 350 114C369 114 384.5 118.167 395 126.5L411.5 176.5C393.682 196.895 374.182 207 350 207C325.818 207 306.318 196.895 288.5 176.5L305 126.5Z" fill="#263545"/>
    <path d="M254 191H446V646C446 667.539 428.539 685 407 685H293C271.461 685 254 667.539 254 646V191Z" fill="url(#hoodieHighlight)"/>
    <path d="M311 437H389C430.421 437 464.839 468.462 468.546 509.717L470 526H230L231.454 509.717C235.161 468.462 269.579 437 311 437Z" fill="none" stroke="#5C7086" stroke-width="12" stroke-linecap="round" stroke-linejoin="round" opacity="0.72"/>
    <rect x="290" y="548" width="120" height="10" rx="5" fill="#55697D" opacity="0.8"/>
    <rect x="334" y="245" width="32" height="230" rx="16" fill="#415364" opacity="0.28"/>
  </g>
</svg>
