<svg xmlns="http://www.w3.org/2000/svg" viewBox="0 0 460 900" fill="none">
  <defs>
    <linearGradient id="thermoBody" x1="110" y1="116" x2="350" y2="792" gradientUnits="userSpaceOnUse">
      <stop stop-color="#2A3746"/>
      <stop offset="0.38" stop-color="#111827"/>
      <stop offset="0.7" stop-color="#1E293B"/>
      <stop offset="1" stop-color="#475569"/>
    </linearGradient>
    <linearGradient id="thermoHighlight" x1="136" y1="176" x2="320" y2="716" gradientUnits="userSpaceOnUse">
      <stop stop-color="#FFFFFF" stop-opacity="0.18"/>
      <stop offset="0.4" stop-color="#FFFFFF" stop-opacity="0.05"/>
      <stop offset="1" stop-color="#FFFFFF" stop-opacity="0"/>
    </linearGradient>
    <linearGradient id="thermoLid" x1="84" y1="80" x2="378" y2="210" gradientUnits="userSpaceOnUse">
      <stop stop-color="#475569"/>
      <stop offset="0.4" stop-color="#0F172A"/>
      <stop offset="1" stop-color="#1E293B"/>
    </linearGradient>
    <filter id="thermoShadow" x="42" y="20" width="376" height="834" color-interpolation-filters="sRGB">
      <feDropShadow dx="0" dy="30" stdDeviation="20" flood-color="#020617" flood-opacity="0.26"/>
    </filter>
  </defs>
  <g filter="url(#thermoShadow)">
    <path d="M125 74H335C362.614 74 385 96.3858 385 124V194H75V124C75 96.3858 97.3858 74 125 74Z" fill="url(#thermoLid)"/>
    <path d="M159 32H301C311.493 32 320 40.5066 320 51V74H140V51C140 40.5066 148.507 32 159 32Z" fill="#0B1220"/>
    <rect x="104" y="180" width="252" height="598" rx="86" fill="url(#thermoBody)"/>
    <rect x="132" y="214" width="196" height="532" rx="72" fill="url(#thermoHighlight)"/>
    <rect x="163" y="192" width="18" height="570" rx="9" fill="#FFFFFF" opacity="0.14"/>
    <rect x="290" y="202" width="14" height="548" rx="7" fill="#0F172A" opacity="0.22"/>
    <rect x="114" y="746" width="232" height="28" rx="14" fill="#0B1220" opacity="0.44"/>
    <rect x="164" y="104" width="132" height="12" rx="6" fill="#CBD5E1" opacity="0.22"/>
  </g>
</svg>
